<?xml version="1.0" encoding="iso-8859-1"?>
<!-- Generator: Adobe Illustrator 19.0.0, SVG Export Plug-In . SVG Version: 6.00 Build 0)  -->
<svg version="1.1" id="Layer_1" xmlns="http://www.w3.org/2000/svg" xmlns:xlink="http://www.w3.org/1999/xlink" x="0px" y="0px"
	 viewBox="0 0 393.051 393.051" style="enable-background:new 0 0 393.051 393.051;" xml:space="preserve">
<path style="fill:#BDBDBE;" d="M330.15,256.776l-97.099-23.402H160l-97.099,23.402c-25.406,6.012-43.507,31.16-43.507,59.992v76.283
	h354.263v-76.283C373.657,287.935,355.556,263.046,330.15,256.776z"/>
<g>
	<path style="fill:#EEB490;" d="M153.018,208.162v21.139c0,24.113,19.394,43.507,43.507,43.507s43.507-19.394,43.507-43.507v-21.139
		H153.018z"/>
	<path style="fill:#EEB490;" d="M124.121,94.125c-15.386,0.711-27.669,13.446-27.669,29.026s12.283,28.315,27.669,29.026V94.125z"/>
	<path style="fill:#EEB490;" d="M268.929,94.125v58.117c15.386-0.711,27.669-13.446,27.669-29.026
		C296.598,107.572,284.315,94.836,268.929,94.125z"/>
</g>
<path style="fill:#FACCB4;" d="M123.798,83.394c-1.099,5.107-1.681,10.473-1.681,15.903v54.497
	c0,41.115,33.293,74.408,74.408,74.408s74.408-33.293,74.408-74.408V99.297c0-5.43-0.582-10.796-1.745-15.903
	C269.188,83.394,123.798,83.394,123.798,83.394z"/>
<path style="fill:#BDBDBE;" d="M279.596,88.048c0-1.552,0.259-3.168,0.259-4.719C279.855,37.495,242.618,0,196.525,0
	s-83.329,37.236-83.329,83.329c0,1.552,0,3.168,0.259,4.719H279.596z"/>
<g>
	<polygon style="fill:#56545F;" points="184.242,148.558 142.804,148.558 137.568,113.972 189.479,113.972 	"/>
	<polygon style="fill:#56545F;" points="250.246,148.558 208.808,148.558 203.572,113.972 255.483,113.972 	"/>
	<path style="fill:#56545F;" d="M70.206,255.224v137.826H177.39c-53.721-57.147-69.947-116.364-74.667-145.648L70.206,255.224z"/>
	<path style="fill:#56545F;" d="M290.327,247.337c-4.978,29.349-21.204,88.566-74.667,145.648h107.184V255.224L290.327,247.337z"/>
</g>
<g>
</g>
<g>
</g>
<g>
</g>
<g>
</g>
<g>
</g>
<g>
</g>
<g>
</g>
<g>
</g>
<g>
</g>
<g>
</g>
<g>
</g>
<g>
</g>
<g>
</g>
<g>
</g>
<g>
</g>
</svg>
